<mxfile host="app.diagrams.net" modified="2023-08-17T05:40:42.237Z" agent="Mozilla/5.0 (Windows NT 10.0; Win64; x64) AppleWebKit/537.36 (KHTML, like Gecko) Chrome/114.0.0.0 Safari/537.36 OPR/100.0.0.0 (Edition std-1)" version="21.6.8" etag="T9mBOiBJ1NgvhpkL7GNf" type="github">
  <diagram name="Page-1" id="x9nUKbjgUoa7SqMfT6t0">
    <mxGraphModel>
      <root>
        <mxCell id="0" />
        <mxCell id="1" parent="0" />
      </root>
    </mxGraphModel>
  </diagram>
</mxfile>
